<!DOCTYPE HTML PUBLIC "-//W3C//DTD HTML 4.01 Transitional//EN">
<HTML>
 <HEAD>
   <TITLE> [Linux-uvc-devel] // Quickcam Pro 9000: slow frame rate? //
   </TITLE>
   <LINK REL="Index" HREF="http://lists.berlios.de/pipermail/linux-uvc-devel/2007-December/index.html" >
   <LINK REL="made" HREF="mailto:linux-uvc-devel%40lists.berlios.de?Subject=Re%3A%20%5BLinux-uvc-devel%5D%20//%20Quickcam%20Pro%209000%3A%20slow%20frame%20rate%3F%20//&In-Reply-To=%3C47641767.1080203%40arkki.info%3E">
   <META NAME="robots" CONTENT="index,nofollow">
   <style type="text/css">
       pre {
           white-space: pre-wrap;       /* css-2.1, curent FF, Opera, Safari */
           }
   </style>
   <META http-equiv="Content-Type" content="text/html; charset=us-ascii">
   <LINK REL="Previous"  HREF="002611.html">
   <LINK REL="Next"  HREF="002608.html">
 </HEAD>
 <BODY BGCOLOR="#ffffff">
   <H1>[Linux-uvc-devel] // Quickcam Pro 9000: slow frame rate? //</H1>
    <B>Asmo Koskinen</B> 
    <A HREF="mailto:linux-uvc-devel%40lists.berlios.de?Subject=Re%3A%20%5BLinux-uvc-devel%5D%20//%20Quickcam%20Pro%209000%3A%20slow%20frame%20rate%3F%20//&In-Reply-To=%3C47641767.1080203%40arkki.info%3E"
       TITLE="[Linux-uvc-devel] // Quickcam Pro 9000: slow frame rate? //">asmo.koskinen at arkki.info
       </A><BR>
    <I>Sat Dec 15 19:05:27 CET 2007</I>
    <P><UL>
        <LI>Previous message: <A HREF="002611.html">[Linux-uvc-devel] // Quickcam Pro 9000: slow frame rate? //
</A></li>
        <LI>Next message: <A HREF="002608.html">[Linux-uvc-devel] // Quickcam Pro 9000: slow frame rate? //
</A></li>
         <LI> <B>Messages sorted by:</B> 
              <a href="date.html#2604">[ date ]</a>
              <a href="thread.html#2604">[ thread ]</a>
              <a href="subject.html#2604">[ subject ]</a>
              <a href="author.html#2604">[ author ]</a>
         </LI>
       </UL>
    <HR>  
<!--beginarticle-->
<PRE>Julian Oliver kirjoitti:
&gt;<i> while picture quality is excellent (for a webcam especially), i'm a bit 
</I>&gt;<i> disappointed with frame rate compared to my other cameras, especially in 
</I>&gt;<i> low-light conditions. in a well lit environment, i get around ~15 FPS while 
</I>&gt;<i> when the light is low, only 8-10 FPS (tested with luvcview) at 320x240.
</I>&gt;<i>   
</I>
What you do think about this kind of quality? Same webcam.

<A HREF="https://lists.berlios.de/mailman/listinfo/linux-uvc-devel">asmok at ubuntu</A>:~$ ffmpeg -f video4linux2 -s 352x288 -r 30 -i /dev/video0 
-an -vcodec mpeg4 out.avi
[--]
Input #0, video4linux2, from '/dev/video0':
  Duration: N/A, bitrate: 48660 kb/s
  Stream #0.0: Video: rawvideo, yuyv422, 352x288, 48660 kb/s, 30.00 fps(r)
Output #0, avi, to 'out.avi':
  Stream #0.0: Video: mpeg4, yuv420p, 352x288, q=2-31, 200 kb/s, 30.00 
fps(c)
Stream mapping:
  Stream #0.0 -&gt; #0.0
Press [q] to stop encoding
frame=  264 q=14.6 Lsize=     641kB time=8.8 bitrate= 596.8kbits/s   
video:16kB audio:0kB global headers:0kB muxing overhead 3976.306966%
<A HREF="https://lists.berlios.de/mailman/listinfo/linux-uvc-devel">asmok at ubuntu</A>:~$ file out.avi
out.avi: RIFF (little-endian) data, AVI, 352 x 288, 30.00 fps, video: 
FFMpeg MPEG-4
<A HREF="https://lists.berlios.de/mailman/listinfo/linux-uvc-devel">asmok at ubuntu</A>:~$ ls -l out.avi
-rw-r--r-- 1 asmok asmok 656530 2007-12-15 19:52 out.avi
<A HREF="https://lists.berlios.de/mailman/listinfo/linux-uvc-devel">asmok at ubuntu</A>:~$

<A HREF="http://www.arkki.info/howto/LogitechPro9000/out.avi">http://www.arkki.info/howto/LogitechPro9000/out.avi</A>

I think that is quite good...no sunlight or extra lights.

I'm not any kind of expert or developer - how I can know real fps?

Best Regards Asmo Koskinen.

</PRE>

<!--endarticle-->
    <HR>
    <P><UL>
        <!--threads-->
	<LI>Previous message: <A HREF="002611.html">[Linux-uvc-devel] // Quickcam Pro 9000: slow frame rate? //
</A></li>
	<LI>Next message: <A HREF="002608.html">[Linux-uvc-devel] // Quickcam Pro 9000: slow frame rate? //
</A></li>
         <LI> <B>Messages sorted by:</B> 
              <a href="date.html#2604">[ date ]</a>
              <a href="thread.html#2604">[ thread ]</a>
              <a href="subject.html#2604">[ subject ]</a>
              <a href="author.html#2604">[ author ]</a>
         </LI>
       </UL>

<hr>
<a href="https://lists.berlios.de/mailman/listinfo/linux-uvc-devel">More information about the Linux-uvc-devel
mailing list</a><br>
</body></html>
